<svg xmlns="http://www.w3.org/2000/svg" xmlns:xlink="http://www.w3.org/1999/xlink" viewBox="0 0 739.42 451.73"><defs><style>.cls-1{fill:url(#linear-gradient);}.cls-2{fill:url(#linear-gradient-2);}.cls-3{fill:url(#linear-gradient-3);}</style><linearGradient id="linear-gradient" x1="93.82" y1="195.07" x2="530.43" y2="195.07" gradientUnits="userSpaceOnUse"><stop offset="0" stop-color="#f05a24"/><stop offset="1" stop-color="#fbab17"/></linearGradient><linearGradient id="linear-gradient-2" x1="93.82" y1="195.07" x2="530.43" y2="195.07" xlink:href="#linear-gradient"/><linearGradient id="linear-gradient-3" x1="93.82" y1="371.73" x2="530.43" y2="371.73" xlink:href="#linear-gradient"/></defs><g id="Layer_2" data-name="Layer 2"><g id="Layer_1-2" data-name="Layer 1"><path d="M96.92,250.4q-31.47,0-53.07-10T11.12,213.06Q0,195.75,0,173.18H50.52a29.81,29.81,0,0,0,4.93,16.52q4.92,7.63,15.09,12.24t26.38,4.6q14.61,0,24.46-3.81t14.94-10.64a25.65,25.65,0,0,0,5.08-15.73q0-11.13-9.53-17.64t-30.82-8.42l-17.48-1.59q-34.63-2.85-55.29-21.6T7.63,77.53q0-22.23,10.64-38.44T48,14.14Q67,5.41,93.1,5.4q27.33,0,46.87,9.38t30,26.37q10.49,17,10.49,39.88H129.65A30.21,30.21,0,0,0,113.28,53.7q-8.1-4.44-20.18-4.45-11.43,0-19.22,3.82a26.42,26.42,0,0,0-11.6,10.32,27.55,27.55,0,0,0-3.81,14.14,24,24,0,0,0,7,17.16q7,7.32,22.88,8.58l17.79,1.59q25.43,2.23,44.81,11t30.34,23.83q11,15.09,11,36.7,0,22.24-11.6,38.92t-32.89,25.9Q126.46,250.39,96.92,250.4Z"/><polygon class="cls-1" points="284.4 70.23 284.4 319.9 233.56 319.9 233.56 107.73 210.36 107.73 210.36 70.23 284.4 70.23"/><path d="M253.25,53.07q-14.3,0-21.13-7.47t-6.83-18.91q0-11.75,6.83-19.22T253.25,0q14.31,0,21.13,7.47t6.84,19.22q0,11.44-6.84,18.91T253.25,53.07Z"/><polygon class="cls-2" points="390.52 70.24 390.52 319.91 339.69 319.91 339.69 107.73 316.5 107.73 316.5 70.24 390.52 70.24"/><path d="M359.39,53.07q-14.31,0-21.14-7.47t-6.83-18.91q0-11.75,6.83-19.22T359.39,0q14.3,0,21.13,7.47t6.83,19.22q0,11.44-6.83,18.91T359.39,53.07Z"/><path d="M490.3,107.4v70.86q0,12.41,6.52,18.92t18.58,6.51h25.74v42.89H516.68q-26.37,0-42.58-6.51a43.24,43.24,0,0,1-23.67-21.93q-7.49-15.4-7.47-41.79V107.4H416.58V70.22H443v-47H490.3v47h50.84V107.4Z"/><path d="M739.42,153.48a96.37,96.37,0,0,0-10.16-44,83.32,83.32,0,0,0-29.39-32.73q-19.25-12.55-47.2-12.55-21.28,0-38,7.47A79.43,79.43,0,0,0,586.9,91.84a90.54,90.54,0,0,0-17,28.75A96.72,96.72,0,0,0,564,154.12v6.35a94.85,94.85,0,0,0,5.88,32.89,91,91,0,0,0,17.16,28.91,81.07,81.07,0,0,0,28.28,20.5q17,7.64,39.24,7.63,21.93,0,38.77-7.63a75.86,75.86,0,0,0,28-21.29,73.41,73.41,0,0,0,14.94-31.14H689.54q-3.18,7.93-12.08,13.35t-22.88,5.4q-15.26,0-24.78-6.36a36.53,36.53,0,0,1-14-18,65.36,65.36,0,0,1-3.58-14.13H739.42Zm-126.8-11.76a60.57,60.57,0,0,1,3.51-12.55q4.77-11.59,14-17.63t22.55-6.05q13,0,21.77,5.88t13.19,17a59.67,59.67,0,0,1,3.51,13.34Z"/><path class="cls-3" d="M312,451.73h-.72c-140.84-.4-215.87-119.89-224-133.52l44.58-26.48c2.62,4.4,65.35,107.83,179.53,108.15h.55c114.57,0,177.46-103.72,180.09-108.14l44.58,26.47C528.49,331.89,453.25,451.73,312,451.73Z"/></g></g></svg>